<?xml version="1.0" encoding="utf-8"?>
<!-- Generator: Adobe Illustrator 16.0.0, SVG Export Plug-In . SVG Version: 6.00 Build 0)  -->
<!DOCTYPE svg PUBLIC "-//W3C//DTD SVG 1.1//EN" "http://www.w3.org/Graphics/SVG/1.1/DTD/svg11.dtd">
<svg version="1.1" id="Capa_1" xmlns="http://www.w3.org/2000/svg" xmlns:xlink="http://www.w3.org/1999/xlink" x="0px" y="0px"
	 width="942.655px" height="942.65px" viewBox="8.806 -199.825 942.655 942.65"
	 enable-background="new 8.806 -199.825 942.655 942.65" xml:space="preserve">
<path fill="#FFB301" d="M638.932,224.351c-5.345-12.292-6.948-41.954-32.602-56.518c-16.568-9.353-35.273-24.718-59.057-37.946
	c-20.442-11.357-57.052-12.96-67.073-13.228l0,0c0,0-0.4,0-1.336,0c-0.802,0-1.336,0-1.336,0l0,0
	c-10.021,0.267-46.631,1.871-67.073,13.228c-23.783,13.228-42.756,28.192-59.056,37.946c-24.317,14.43-27.391,44.092-32.602,56.518
	c-5.344,12.292-23.783,25.52-16.701,82.973c0,0,11.49,22.046,36.208,30.864h281.52c24.719-8.818,36.209-30.864,36.209-30.864
	C662.714,250.004,644.142,236.776,638.932,224.351"/>
<path fill="#424242" d="M405.912,159.148c0,0,26.455,138.555,55.583,134.146C490.622,288.752,440.384,187.34,405.912,159.148"/>
<path fill="#424242" d="M353.537,225.019c-6.547-1.336-5.612,10.823,2.004,26.99c0,0,20.443,43.157,54.915,41.287l-28.593-72.151
	c-6.547-16.702-12.96-22.046-14.163-11.892C366.363,219.273,360.083,226.355,353.537,225.019"/>
<path fill="#424242" d="M317.328,265.236c-1.202-6.414,3.741-2.004,10.957,9.887c7.215,11.892,3.741,20.443-7.883,18.973
	l-5.345-12.292C317.595,279.131,318.664,271.783,317.328,265.236"/>
<path fill="#424242" d="M450.672,140.576c0,4.275-4.943,7.616-11.09,7.616c-6.146,0-11.089-3.474-11.089-7.616
	c0-4.275,4.943-7.616,11.089-7.616C445.595,132.827,450.672,136.301,450.672,140.576"/>
<path fill="#424242" d="M551.549,159.148c0,0-26.455,138.555-55.582,134.146C466.839,288.752,517.211,187.34,551.549,159.148"/>
<path fill="#424242" d="M604.059,225.019c6.547-1.336,5.611,10.823-2.004,26.99c0,0-20.443,43.157-54.915,41.287l28.593-72.151
	c6.547-16.702,12.961-22.046,14.163-11.892C591.231,219.273,597.512,226.355,604.059,225.019"/>
<path fill="#424242" d="M640.134,265.236c1.202-6.414-3.741-2.004-10.956,9.887c-7.215,11.892-3.741,20.443,7.883,18.973
	l5.345-12.292C640,279.131,638.932,271.783,640.134,265.236"/>
<path fill="#424242" d="M506.923,140.576c0,4.275,4.943,7.616,11.09,7.616c6.146,0,11.09-3.474,11.09-7.616
	c0-4.275-4.944-7.616-11.09-7.616C511.866,132.827,506.923,136.301,506.923,140.576"/>
<path fill="#424242" d="M303.432,309.996c3.875,6.146,15.098,21.244,34.605,28.191h281.52c19.507-6.947,30.73-22.179,34.605-28.191
	H303.432z"/>
<polygon fill="#FFB301" points="132.81,138.038 132.142,149.662 141.228,156.877 130.004,159.683 125.996,170.639 119.716,160.751 
	108.092,160.351 115.574,151.399 112.367,140.175 123.19,144.451 "/>
<polygon fill="#FFB301" points="170.355,159.683 169.553,171.307 178.639,178.388 167.416,181.328 163.407,192.15 157.127,182.396 
	145.637,181.862 152.985,173.044 149.779,161.82 160.601,166.096 "/>
<polygon fill="#FFB301" points="207.766,181.328 206.964,192.818 216.184,200.033 204.827,202.973 200.818,213.795 194.672,204.042 
	183.048,203.507 190.396,194.555 187.324,183.465 198.146,187.741 "/>
<polygon fill="#FFB301" points="245.177,202.839 244.509,214.463 253.595,221.679 242.372,224.618 238.363,235.44 232.083,225.687 
	220.459,225.152 227.941,216.2 224.735,204.977 235.558,209.386 "/>
<polygon fill="#FFB301" points="282.722,224.484 281.921,236.108 291.006,243.324 279.783,246.129 275.774,257.085 269.495,247.198 
	257.871,246.797 265.353,237.846 262.146,226.622 272.969,231.031 "/>
<path fill="#5ABCDC" d="M273.503,274.054L21.912,130.422C-13.361,185.336,199.482,245.862,273.503,274.054"/>
<path fill="#5ABCDC" d="M247.449,273.787L8.818,182.664C7.349,235.173,140.025,252.943,247.449,273.787"/>
<path fill="#5ABCDC" d="M246.647,281.27l-225.67-43.825C47.432,296.234,149.512,277.929,246.647,281.27"/>
<path fill="#5ABCDC" d="M256.802,288.752L49.57,282.07C96.334,338.188,157.929,305.053,256.802,288.752"/>
<path fill="#5ABCDC" d="M263.75,294.764l-172.226,28.46C147.774,369.587,182.514,329.236,263.75,294.764"/>
<path fill="#5ABCDC" d="M268.426,300.776l-130.939,55.85C195.474,394.305,214.714,345.27,268.426,300.776"/>
<path fill="#5ABCDC" d="M274.572,306.789l-92.326,76.426C245.177,417.954,245.311,358.229,274.572,306.789"/>
<path fill="#5ABCDC" d="M276.309,324.827l-47.031,82.571C299.691,441.336,277.645,370.923,276.309,324.827"/>
<polygon fill="#FFB301" points="674.873,224.217 684.492,230.63 695.315,226.355 692.242,237.445 699.591,246.396 687.967,246.931 
	681.82,256.685 677.813,245.862 666.455,242.923 675.674,235.708 "/>
<polygon fill="#FFB301" points="712.284,202.572 722.037,208.985 732.727,204.71 729.653,215.933 737.002,224.751 725.512,225.286 
	719.231,235.04 715.224,224.217 704,221.278 713.086,214.196 "/>
<polygon fill="#FFB301" points="749.829,180.927 759.449,187.34 770.271,183.064 767.064,194.288 774.547,203.24 762.923,203.641 
	756.643,213.528 752.635,202.572 741.411,199.766 750.497,192.551 "/>
<polygon fill="#FFB301" points="787.24,159.282 796.86,165.695 807.683,161.419 804.476,172.643 811.958,181.595 800.334,181.996 
	794.188,191.883 790.18,180.927 778.822,178.121 788.042,170.906 "/>
<polygon fill="#FFB301" points="824.651,137.637 834.405,144.05 845.094,139.774 842.021,150.998 849.369,159.95 837.879,160.351 
	831.6,170.238 827.591,159.282 816.367,156.476 825.453,149.261 "/>
<path fill="#5ABCDC" d="M686.764,274.054l251.591-143.632C973.762,185.336,760.785,245.862,686.764,274.054"/>
<path fill="#5ABCDC" d="M712.952,273.787l238.497-91.257C952.919,235.173,820.376,252.943,712.952,273.787"/>
<path fill="#5ABCDC" d="M713.754,281.27l225.536-43.825C912.969,296.234,810.89,277.929,713.754,281.27"/>
<path fill="#5ABCDC" d="M703.6,288.752l207.231-6.682C864.066,338.188,802.338,305.053,703.6,288.752"/>
<path fill="#5ABCDC" d="M696.651,294.764l172.226,28.46C812.626,369.587,777.888,329.236,696.651,294.764"/>
<path fill="#5ABCDC" d="M691.975,300.776l130.939,55.85C764.927,394.305,745.687,345.27,691.975,300.776"/>
<path fill="#5ABCDC" d="M685.829,306.789l92.459,76.56C715.224,417.954,715.09,358.229,685.829,306.789"/>
<path fill="#5ABCDC" d="M684.092,324.827l47.031,82.571C660.576,441.336,682.756,370.923,684.092,324.827"/>
<path fill="#424242" d="M307.708,418.354c-2.004,2.673-4.142,4.811-6.413,6.28s-4.676,2.138-7.082,2.138
	c-2.939,0-5.211-1.069-6.681-3.073s-2.271-4.943-2.271-8.818c0-4.275,1.069-9.086,3.073-14.697
	c2.138-5.478,4.944-11.09,8.685-16.835c3.073-4.543,6.28-8.685,9.888-12.292c3.474-3.607,6.814-6.414,9.887-8.15
	c0.133-0.802,0.267-2.005,0.401-3.341c0.4-5.211,1.202-8.417,2.271-9.353c0.668-0.534,1.871-1.202,3.608-1.737
	c1.737-0.668,3.207-0.935,4.275-0.935c0.534,0,0.935,0.267,1.203,0.668c0.401,0.4,0.534,0.935,0.534,1.47c0,0.267,0,0.534,0,0.935
	c0,0.401-0.133,0.802-0.133,1.203c1.87-1.336,3.875-2.405,6.012-3.073s4.142-1.069,6.28-1.069c4.008,0,7.215,1.337,9.754,4.143
	c2.539,2.806,3.741,6.413,3.741,10.822c0,4.811-1.47,8.952-4.409,12.693s-7.215,6.814-12.693,9.086
	c2.138,2.672,3.741,5.478,4.676,8.149c1.069,2.673,1.604,5.479,1.604,8.15c0,5.879-2.004,10.956-6.013,15.232
	c-4.008,4.142-9.085,6.279-14.964,6.279c-2.539,0-5.077-0.267-7.482-0.936C312.651,420.492,310.246,419.558,307.708,418.354z
	 M311.716,410.873c1.604,0.4,3.073,0.801,4.276,0.935c1.203,0.268,2.405,0.268,3.34,0.268c3.875,0,7.082-1.47,9.62-4.543
	c2.539-2.939,3.741-6.814,3.741-11.356c0-1.737-0.268-3.475-0.668-4.944c-0.534-1.47-1.202-3.073-2.271-4.543
	c-0.802,0.134-1.604,0.268-2.405,0.268s-1.336,0.134-2.004,0.134c-0.535,0-1.203,0-2.004,0c-0.668,0-1.47-0.134-2.405-0.268
	c-1.336,4.944-2.672,9.354-4.275,13.361C315.324,404.325,313.586,407.934,311.716,410.873z M313.987,374.396
	c-2.939,2.673-5.611,5.879-8.15,9.754c-2.539,3.741-4.943,8.417-7.349,13.762c-1.47,3.474-2.672,6.413-3.34,8.952
	c-0.802,2.539-1.069,4.543-1.069,6.146c0,0.935,0.134,1.603,0.535,2.004c0.401,0.4,0.935,0.668,1.604,0.668
	c2.271,0,5.077-3.607,8.15-10.688C307.44,397.778,310.647,387.624,313.987,374.396z M323.875,376.134
	c1.604,0.134,3.073,0.534,4.543,1.068c1.47,0.535,2.806,1.337,4.142,2.405c3.474-2.538,6.146-5.211,8.017-8.017
	s2.806-5.479,2.806-8.017c0-2.405-0.534-4.275-1.737-5.479c-1.203-1.336-2.806-1.87-4.943-1.87c-1.47,0-3.073,0.267-4.677,0.936
	c-1.603,0.668-3.207,1.603-4.81,2.939c-0.401,2.538-0.935,5.21-1.47,8.017C325.211,370.521,324.543,373.328,323.875,376.134z"/>
<path fill="none" stroke="#424242" stroke-width="0.9773" d="M307.708,418.354c-2.004,2.673-4.142,4.811-6.413,6.28
	s-4.676,2.138-7.082,2.138c-2.939,0-5.211-1.069-6.681-3.073s-2.271-4.943-2.271-8.818c0-4.275,1.069-9.086,3.073-14.697
	c2.138-5.478,4.944-11.09,8.685-16.835c3.073-4.543,6.28-8.685,9.888-12.292c3.474-3.607,6.814-6.414,9.887-8.15
	c0.133-0.802,0.267-2.005,0.401-3.341c0.4-5.211,1.202-8.417,2.271-9.353c0.668-0.534,1.871-1.202,3.608-1.737
	c1.737-0.668,3.207-0.935,4.275-0.935c0.534,0,0.935,0.267,1.203,0.668c0.401,0.4,0.534,0.935,0.534,1.47c0,0.267,0,0.534,0,0.935
	c0,0.401-0.133,0.802-0.133,1.203c1.87-1.336,3.875-2.405,6.012-3.073s4.142-1.069,6.28-1.069c4.008,0,7.215,1.337,9.754,4.143
	c2.539,2.806,3.741,6.413,3.741,10.822c0,4.811-1.47,8.952-4.409,12.693s-7.215,6.814-12.693,9.086
	c2.138,2.672,3.741,5.478,4.676,8.149c1.069,2.673,1.604,5.479,1.604,8.15c0,5.879-2.004,10.956-6.013,15.232
	c-4.008,4.142-9.085,6.279-14.964,6.279c-2.539,0-5.077-0.267-7.482-0.936C312.651,420.492,310.246,419.558,307.708,418.354z
	 M311.716,410.873c1.604,0.4,3.073,0.801,4.276,0.935c1.203,0.268,2.405,0.268,3.34,0.268c3.875,0,7.082-1.47,9.62-4.543
	c2.539-2.939,3.741-6.814,3.741-11.356c0-1.737-0.268-3.475-0.668-4.944c-0.534-1.47-1.202-3.073-2.271-4.543
	c-0.802,0.134-1.604,0.268-2.405,0.268s-1.336,0.134-2.004,0.134c-0.535,0-1.203,0-2.004,0c-0.668,0-1.47-0.134-2.405-0.268
	c-1.336,4.944-2.672,9.354-4.275,13.361C315.324,404.325,313.586,407.934,311.716,410.873z M313.987,374.396
	c-2.939,2.673-5.611,5.879-8.15,9.754c-2.539,3.741-4.943,8.417-7.349,13.762c-1.47,3.474-2.672,6.413-3.34,8.952
	c-0.802,2.539-1.069,4.543-1.069,6.146c0,0.935,0.134,1.603,0.535,2.004c0.401,0.4,0.935,0.668,1.604,0.668
	c2.271,0,5.077-3.607,8.15-10.688C307.44,397.778,310.647,387.624,313.987,374.396z M323.875,376.134
	c1.604,0.134,3.073,0.534,4.543,1.068c1.47,0.535,2.806,1.337,4.142,2.405c3.474-2.538,6.146-5.211,8.017-8.017
	s2.806-5.479,2.806-8.017c0-2.405-0.534-4.275-1.737-5.479c-1.203-1.336-2.806-1.87-4.943-1.87c-1.47,0-3.073,0.267-4.677,0.936
	c-1.603,0.668-3.207,1.603-4.81,2.939c-0.401,2.538-0.935,5.21-1.47,8.017C325.211,370.521,324.543,373.328,323.875,376.134z"/>
<path fill="#424242" d="M374.647,362.371c-1.871,0-3.207-0.534-4.275-1.47c-0.935-0.935-1.47-2.404-1.47-4.275
	c0-2.404,0.668-4.409,2.138-6.013c1.47-1.603,3.207-2.404,5.345-2.404c1.603,0,3.073,0.534,4.142,1.736
	c1.069,1.069,1.737,2.539,1.737,4.276c0,2.404-0.668,4.275-2.138,5.879C378.655,361.57,376.785,362.371,374.647,362.371z
	 M342.714,421.829l1.737-6.414c3.741-0.133,6.948-2.138,9.486-6.146c2.672-4.009,5.077-10.556,7.482-19.774
	c0.401-1.47,0.802-3.341,1.203-5.612c0.936-4.81,4.008-7.215,9.353-7.215c1.202,0,2.138,0.134,2.806,0.534
	c0.668,0.401,0.936,0.936,0.936,1.604c0,0.936-0.535,2.806-1.604,5.612c-1.069,2.806-1.871,4.81-2.405,6.413l-4.542,13.762
	l-0.134,0.534c-1.069,3.341-1.737,5.479-1.737,6.414c0,1.336,0.401,2.271,1.336,2.806c0.936,0.534,2.672,0.802,5.478,1.068
	l-1.737,6.414h-1.604c-4.008,0-7.081-0.535-9.219-1.604c-2.004-1.069-3.207-2.806-3.607-5.077c-1.871,2.138-3.875,3.741-6.012,4.81
	C347.791,421.161,345.252,421.829,342.714,421.829z"/>
<path fill="none" stroke="#424242" stroke-width="0.9773" d="M374.647,362.371c-1.871,0-3.207-0.534-4.275-1.47
	c-0.935-0.935-1.47-2.404-1.47-4.275c0-2.404,0.668-4.409,2.138-6.013c1.47-1.603,3.207-2.404,5.345-2.404
	c1.603,0,3.073,0.534,4.142,1.736c1.069,1.069,1.737,2.539,1.737,4.276c0,2.404-0.668,4.275-2.138,5.879
	C378.655,361.57,376.785,362.371,374.647,362.371z M342.714,421.829l1.737-6.414c3.741-0.133,6.948-2.138,9.486-6.146
	c2.672-4.009,5.077-10.556,7.482-19.774c0.401-1.47,0.802-3.341,1.203-5.612c0.936-4.81,4.008-7.215,9.353-7.215
	c1.202,0,2.138,0.134,2.806,0.534c0.668,0.401,0.936,0.936,0.936,1.604c0,0.936-0.535,2.806-1.604,5.612
	c-1.069,2.806-1.871,4.81-2.405,6.413l-4.542,13.762l-0.134,0.534c-1.069,3.341-1.737,5.479-1.737,6.414
	c0,1.336,0.401,2.271,1.336,2.806c0.936,0.534,2.672,0.802,5.478,1.068l-1.737,6.414h-1.604c-4.008,0-7.081-0.535-9.219-1.604
	c-2.004-1.069-3.207-2.806-3.607-5.077c-1.871,2.138-3.875,3.741-6.012,4.81C347.791,421.161,345.252,421.829,342.714,421.829z"/>
<path fill="#424242" d="M370.505,421.829l1.871-6.414c1.87-0.133,3.741-0.4,5.478-0.802c1.737-0.534,3.207-1.202,4.676-2.004
	c-0.802-1.336-1.336-2.806-1.737-4.409s-0.535-3.474-0.535-5.611c0-6.948,2.405-12.961,7.349-18.038
	c4.944-5.211,10.556-7.749,16.835-7.749c3.207,0,5.745,0.802,7.75,2.271c1.87,1.47,2.806,3.474,2.806,5.879
	c0,1.604-0.534,3.073-1.47,4.142c-0.936,1.069-2.138,1.604-3.474,1.604c-0.535,0-0.802-0.134-1.069-0.268
	c-0.134-0.133-0.268-0.534-0.268-1.068c0-1.47-0.4-2.539-1.068-3.207s-1.737-1.068-3.207-1.068c-3.206,0-6.013,1.736-8.551,5.211
	c-2.539,3.474-3.875,7.481-3.875,11.891c0,4.543,1.47,7.884,4.275,10.021c2.807,2.138,7.349,3.206,13.495,3.34l-1.737,6.413
	c-0.534,0-1.068,0-1.603,0.134c-0.134,0-0.268,0-0.268,0c-4.275,0-8.15-0.4-11.357-1.336c-3.34-0.936-6.013-2.138-8.017-3.875
	c-2.138,1.604-4.542,2.807-7.349,3.607C376.785,421.294,373.846,421.829,370.505,421.829z"/>
<path fill="none" stroke="#424242" stroke-width="0.9773" d="M370.505,421.829l1.871-6.414c1.87-0.133,3.741-0.4,5.478-0.802
	c1.737-0.534,3.207-1.202,4.676-2.004c-0.802-1.336-1.336-2.806-1.737-4.409s-0.535-3.474-0.535-5.611
	c0-6.948,2.405-12.961,7.349-18.038c4.944-5.211,10.556-7.749,16.835-7.749c3.207,0,5.745,0.802,7.75,2.271
	c1.87,1.47,2.806,3.474,2.806,5.879c0,1.604-0.534,3.073-1.47,4.142c-0.936,1.069-2.138,1.604-3.474,1.604
	c-0.535,0-0.802-0.134-1.069-0.268c-0.134-0.133-0.268-0.534-0.268-1.068c0-1.47-0.4-2.539-1.068-3.207s-1.737-1.068-3.207-1.068
	c-3.206,0-6.013,1.736-8.551,5.211c-2.539,3.474-3.875,7.481-3.875,11.891c0,4.543,1.47,7.884,4.275,10.021
	c2.807,2.138,7.349,3.206,13.495,3.34l-1.737,6.413c-0.534,0-1.068,0-1.603,0.134c-0.134,0-0.268,0-0.268,0
	c-4.275,0-8.15-0.4-11.357-1.336c-3.34-0.936-6.013-2.138-8.017-3.875c-2.138,1.604-4.542,2.807-7.349,3.607
	C376.785,421.294,373.846,421.829,370.505,421.829z"/>
<path fill="#424242" d="M439.983,362.371c-1.871,0-3.207-0.534-4.275-1.47c-0.936-0.935-1.47-2.404-1.47-4.275
	c0-2.404,0.668-4.409,2.138-6.013c1.47-1.603,3.206-2.404,5.345-2.404c1.603,0,3.072,0.534,4.142,1.736
	c1.068,1.069,1.737,2.539,1.737,4.276c0,2.404-0.669,4.275-2.139,5.879C443.991,361.57,442.255,362.371,439.983,362.371z
	 M408.05,421.829l1.737-6.414c3.741-0.133,6.947-2.138,9.486-6.146c2.672-4.009,5.077-10.556,7.482-19.774
	c0.4-1.47,0.802-3.341,1.202-5.612c0.936-4.81,4.009-7.215,9.353-7.215c1.203,0,2.139,0.134,2.807,0.534
	c0.668,0.401,0.935,0.936,0.935,1.604c0,0.936-0.534,2.806-1.603,5.612c-1.069,2.806-1.871,4.81-2.405,6.413l-4.543,13.762
	l-0.134,0.534c-1.068,3.341-1.736,5.479-1.736,6.414c0,1.336,0.4,2.271,1.336,2.806s2.672,0.802,5.478,1.068l-1.736,6.414h-1.737
	c-4.008,0-7.081-0.535-9.219-1.604c-2.005-1.069-3.207-2.806-3.607-5.077c-1.871,2.138-3.875,3.741-6.013,4.81
	C413.127,421.161,410.723,421.829,408.05,421.829z"/>
<path fill="none" stroke="#424242" stroke-width="0.9773" d="M439.983,362.371c-1.871,0-3.207-0.534-4.275-1.47
	c-0.936-0.935-1.47-2.404-1.47-4.275c0-2.404,0.668-4.409,2.138-6.013c1.47-1.603,3.206-2.404,5.345-2.404
	c1.603,0,3.072,0.534,4.142,1.736c1.068,1.069,1.737,2.539,1.737,4.276c0,2.404-0.669,4.275-2.139,5.879
	C443.991,361.57,442.255,362.371,439.983,362.371z M408.05,421.829l1.737-6.414c3.741-0.133,6.947-2.138,9.486-6.146
	c2.672-4.009,5.077-10.556,7.482-19.774c0.4-1.47,0.802-3.341,1.202-5.612c0.936-4.81,4.009-7.215,9.353-7.215
	c1.203,0,2.139,0.134,2.807,0.534c0.668,0.401,0.935,0.936,0.935,1.604c0,0.936-0.534,2.806-1.603,5.612
	c-1.069,2.806-1.871,4.81-2.405,6.413l-4.543,13.762l-0.134,0.534c-1.068,3.341-1.736,5.479-1.736,6.414
	c0,1.336,0.4,2.271,1.336,2.806s2.672,0.802,5.478,1.068l-1.736,6.414h-1.737c-4.008,0-7.081-0.535-9.219-1.604
	c-2.005-1.069-3.207-2.806-3.607-5.077c-1.871,2.138-3.875,3.741-6.013,4.81C413.127,421.161,410.723,421.829,408.05,421.829z"/>
<path fill="#424242" d="M483.674,356.626h10.021l-14.43,16.568h-6.146L483.674,356.626z M476.994,404.727
	c-3.341,6.013-6.681,10.422-10.021,13.228c-3.34,2.806-6.814,4.142-10.688,4.142c-1.871,0-3.341-0.267-4.677-0.802
	c-1.336-0.534-2.405-1.202-3.073-2.271c-1.604,0.801-3.34,1.47-5.344,2.004c-2.005,0.4-4.409,0.802-7.082,0.802l1.871-6.414
	c1.736-0.133,3.34-0.267,4.676-0.668c1.337-0.4,2.673-0.802,3.741-1.47c-0.134-0.668-0.267-1.336-0.267-2.004
	s-0.134-1.47-0.134-2.271c0-2.672,0.534-5.478,1.736-8.551c1.203-3.073,2.673-6.146,4.811-9.22
	c3.206-4.543,6.681-8.017,10.555-10.422c3.875-2.404,7.75-3.607,11.892-3.607c2.005,0,3.875,0.268,5.345,0.936
	c1.47,0.534,2.939,1.604,4.275,2.939l0.668-2.138c0.401-1.336,0.802-2.138,1.203-2.405c0.4-0.4,1.068-0.534,1.87-0.534
	c2.138,0,4.142,0.4,5.745,1.069c1.604,0.801,2.405,1.603,2.405,2.672c0,0.268-0.668,1.87-2.004,4.409
	c-1.336,2.672-2.539,5.211-3.607,7.616c-2.138,4.81-3.608,8.818-4.677,12.292c-1.069,3.34-1.604,6.013-1.604,7.883
	c0,1.202,0.401,2.138,1.203,2.672c0.801,0.535,2.538,0.802,5.344,1.069l-1.87,6.413h-0.802c-4.943,0-8.418-0.534-10.422-1.603
	c-2.004-1.069-3.073-2.807-3.073-5.345c0-1.069,0.134-2.405,0.534-4.009C475.524,409.403,476.059,407.265,476.994,404.727z
	 M481.804,386.822c-0.802-0.668-1.737-1.202-2.538-1.47c-0.802-0.267-1.737-0.534-2.539-0.534c-1.871,0-4.009,0.802-6.413,2.405
	c-2.405,1.604-4.677,3.741-6.948,6.547c-2.004,2.538-3.607,5.211-4.81,8.15c-1.203,2.806-1.737,5.344-1.737,7.482
	c0,1.603,0.268,2.672,0.802,3.474s1.336,1.068,2.405,1.068c3.072,0,6.547-2.271,10.154-6.947
	C473.921,402.455,477.795,395.774,481.804,386.822z"/>
<path fill="none" stroke="#424242" stroke-width="0.9773" d="M483.674,356.626h10.021l-14.43,16.568h-6.146L483.674,356.626z
	 M476.994,404.727c-3.341,6.013-6.681,10.422-10.021,13.228c-3.34,2.806-6.814,4.142-10.688,4.142c-1.871,0-3.341-0.267-4.677-0.802
	c-1.336-0.534-2.405-1.202-3.073-2.271c-1.604,0.801-3.34,1.47-5.344,2.004c-2.005,0.4-4.409,0.802-7.082,0.802l1.871-6.414
	c1.736-0.133,3.34-0.267,4.676-0.668c1.337-0.4,2.673-0.802,3.741-1.47c-0.134-0.668-0.267-1.336-0.267-2.004
	s-0.134-1.47-0.134-2.271c0-2.672,0.534-5.478,1.736-8.551c1.203-3.073,2.673-6.146,4.811-9.22
	c3.206-4.543,6.681-8.017,10.555-10.422c3.875-2.404,7.75-3.607,11.892-3.607c2.005,0,3.875,0.268,5.345,0.936
	c1.47,0.534,2.939,1.604,4.275,2.939l0.668-2.138c0.401-1.336,0.802-2.138,1.203-2.405c0.4-0.4,1.068-0.534,1.87-0.534
	c2.138,0,4.142,0.4,5.745,1.069c1.604,0.801,2.405,1.603,2.405,2.672c0,0.268-0.668,1.87-2.004,4.409
	c-1.336,2.672-2.539,5.211-3.607,7.616c-2.138,4.81-3.608,8.818-4.677,12.292c-1.069,3.34-1.604,6.013-1.604,7.883
	c0,1.202,0.401,2.138,1.203,2.672c0.801,0.535,2.538,0.802,5.344,1.069l-1.87,6.413h-0.802c-4.943,0-8.418-0.534-10.422-1.603
	c-2.004-1.069-3.073-2.807-3.073-5.345c0-1.069,0.134-2.405,0.534-4.009C475.524,409.403,476.059,407.265,476.994,404.727z
	 M481.804,386.822c-0.802-0.668-1.737-1.202-2.538-1.47c-0.802-0.267-1.737-0.534-2.539-0.534c-1.871,0-4.009,0.802-6.413,2.405
	c-2.405,1.604-4.677,3.741-6.948,6.547c-2.004,2.538-3.607,5.211-4.81,8.15c-1.203,2.806-1.737,5.344-1.737,7.482
	c0,1.603,0.268,2.672,0.802,3.474s1.336,1.068,2.405,1.068c3.072,0,6.547-2.271,10.154-6.947
	C473.921,402.455,477.795,395.774,481.804,386.822z"/>
<path fill="#424242" d="M500.108,417.286c-1.336,1.47-3.073,2.538-4.81,3.34c-1.871,0.802-4.009,1.203-6.28,1.337l1.737-6.414
	c3.34-0.134,6.146-1.736,8.417-4.676c2.271-2.939,4.409-7.75,6.28-14.431c0.936-3.206,1.87-6.947,2.806-11.356
	c1.202-5.879,3.341-8.818,6.013-8.818c2.538,0,4.275,0.133,5.345,0.4c1.068,0.268,1.603,0.802,1.603,1.47
	c0,0.534-0.935,3.207-2.939,8.15c-2.004,4.81-3.74,9.62-5.211,14.163c4.944-8.017,9.487-13.763,13.495-17.503
	c4.143-3.741,8.15-5.479,12.025-5.479c2.004,0,3.474,0.534,4.676,1.604c1.069,1.068,1.737,2.538,1.737,4.409
	c0,2.138-1.87,7.749-5.479,16.835l-1.202,2.939c-0.802,1.87-1.47,3.741-1.87,5.345c-0.401,1.603-0.668,2.806-0.668,3.474
	c0,1.202,0.4,2.004,1.336,2.405c0.936,0.534,2.672,0.802,5.345,0.935l-1.871,6.414h-1.068c-5.211,0-8.952-0.668-11.357-2.138
	c-2.405-1.337-3.607-3.607-3.607-6.547c0-1.337,0.4-3.475,1.336-6.28s2.271-6.413,4.142-10.688l0.401-0.936
	c1.604-3.607,2.405-5.745,2.405-6.413c0-0.535-0.134-0.936-0.401-1.203c-0.267-0.267-0.668-0.4-1.202-0.4
	c-1.871,0-4.811,2.404-8.685,7.081c-3.875,4.677-7.349,10.422-10.288,17.236c-0.535,1.336-1.203,3.073-2.005,4.943
	c-1.336,3.607-3.874,5.345-7.749,5.345c-1.203,0-2.138-0.134-2.672-0.401c-0.535-0.267-0.802-0.668-0.802-1.202
	c0-0.268,0.133-0.802,0.267-1.202C499.44,418.756,499.708,418.088,500.108,417.286z"/>
<path fill="none" stroke="#424242" stroke-width="0.9773" d="M500.108,417.286c-1.336,1.47-3.073,2.538-4.81,3.34
	c-1.871,0.802-4.009,1.203-6.28,1.337l1.737-6.414c3.34-0.134,6.146-1.736,8.417-4.676c2.271-2.939,4.409-7.75,6.28-14.431
	c0.936-3.206,1.87-6.947,2.806-11.356c1.202-5.879,3.341-8.818,6.013-8.818c2.538,0,4.275,0.133,5.345,0.4
	c1.068,0.268,1.603,0.802,1.603,1.47c0,0.534-0.935,3.207-2.939,8.15c-2.004,4.81-3.74,9.62-5.211,14.163
	c4.944-8.017,9.487-13.763,13.495-17.503c4.143-3.741,8.15-5.479,12.025-5.479c2.004,0,3.474,0.534,4.676,1.604
	c1.069,1.068,1.737,2.538,1.737,4.409c0,2.138-1.87,7.749-5.479,16.835l-1.202,2.939c-0.802,1.87-1.47,3.741-1.87,5.345
	c-0.401,1.603-0.668,2.806-0.668,3.474c0,1.202,0.4,2.004,1.336,2.405c0.936,0.534,2.672,0.802,5.345,0.935l-1.871,6.414h-1.068
	c-5.211,0-8.952-0.668-11.357-2.138c-2.405-1.337-3.607-3.607-3.607-6.547c0-1.337,0.4-3.475,1.336-6.28s2.271-6.413,4.142-10.688
	l0.401-0.936c1.604-3.607,2.405-5.745,2.405-6.413c0-0.535-0.134-0.936-0.401-1.203c-0.267-0.267-0.668-0.4-1.202-0.4
	c-1.871,0-4.811,2.404-8.685,7.081c-3.875,4.677-7.349,10.422-10.288,17.236c-0.535,1.336-1.203,3.073-2.005,4.943
	c-1.336,3.607-3.874,5.345-7.749,5.345c-1.203,0-2.138-0.134-2.672-0.401c-0.535-0.267-0.802-0.668-0.802-1.202
	c0-0.268,0.133-0.802,0.267-1.202C499.44,418.756,499.708,418.088,500.108,417.286z"/>
<path fill="#424242" d="M586.422,386.822c-0.802-0.668-1.737-1.202-2.539-1.47c-0.802-0.267-1.736-0.534-2.538-0.534
	c-1.871,0-4.009,0.802-6.413,2.405c-2.405,1.604-4.677,3.741-6.948,6.547c-2.004,2.538-3.607,5.211-4.811,8.15
	c-1.202,2.806-1.736,5.344-1.736,7.482c0,1.603,0.267,2.672,0.802,3.474c0.534,0.802,1.336,1.068,2.404,1.068
	c3.073,0,6.548-2.271,10.155-6.947C578.539,402.455,582.413,395.774,586.422,386.822z M581.611,404.727
	c-3.34,6.013-6.681,10.422-10.021,13.228c-3.341,2.806-6.814,4.142-10.688,4.142c-1.871,0-3.341-0.267-4.677-0.802
	c-1.336-0.534-2.405-1.202-3.073-2.271c-1.604,0.801-3.34,1.47-5.345,2.004c-2.004,0.4-4.409,0.802-7.081,0.802l1.87-6.414
	c1.737-0.133,3.341-0.267,4.677-0.668c1.336-0.4,2.672-0.802,3.741-1.47c-0.134-0.668-0.268-1.336-0.268-2.004
	s-0.134-1.47-0.134-2.271c0-2.672,0.535-5.478,1.737-8.551s2.672-6.146,4.811-9.22c3.206-4.543,6.681-8.017,10.421-10.422
	c3.741-2.404,7.75-3.607,11.892-3.607c2.005,0,3.875,0.268,5.345,0.936c1.604,0.668,3.073,1.604,4.543,3.073
	c0.4-2.138,0.936-3.474,1.604-4.009c0.668-0.534,2.271-0.935,4.81-0.935c2.138,0,3.607,0.267,4.543,0.668
	c0.802,0.4,1.202,1.068,1.202,2.004c0,0.4-0.134,0.936-0.267,1.47c-0.134,0.534-0.401,1.47-0.936,2.672l-13.896,33.671
	c0.936-0.401,2.672-0.668,4.81-0.802c2.271-0.134,3.875-0.401,4.944-0.535l-1.737,6.414l-0.668,0.134
	c-4.677,0.4-7.884,1.068-9.754,1.736c-3.474,8.284-6.413,14.029-9.086,17.236c-2.672,3.206-5.611,4.81-8.685,4.81
	c-2.004,0-3.607-0.534-4.676-1.47c-1.069-1.068-1.604-2.405-1.604-4.275c0-2.672,1.068-5.211,3.073-7.482
	c2.138-2.271,5.344-4.543,9.753-6.681c1.604-3.206,3.073-6.547,4.543-9.887C578.806,412.209,580.275,408.602,581.611,404.727z"/>
<path fill="none" stroke="#424242" stroke-width="0.9773" d="M586.422,386.822c-0.802-0.668-1.737-1.202-2.539-1.47
	c-0.802-0.267-1.736-0.534-2.538-0.534c-1.871,0-4.009,0.802-6.413,2.405c-2.405,1.604-4.677,3.741-6.948,6.547
	c-2.004,2.538-3.607,5.211-4.811,8.15c-1.202,2.806-1.736,5.344-1.736,7.482c0,1.603,0.267,2.672,0.802,3.474
	c0.534,0.802,1.336,1.068,2.404,1.068c3.073,0,6.548-2.271,10.155-6.947C578.539,402.455,582.413,395.774,586.422,386.822z
	 M581.611,404.727c-3.34,6.013-6.681,10.422-10.021,13.228c-3.341,2.806-6.814,4.142-10.688,4.142c-1.871,0-3.341-0.267-4.677-0.802
	c-1.336-0.534-2.405-1.202-3.073-2.271c-1.604,0.801-3.34,1.47-5.345,2.004c-2.004,0.4-4.409,0.802-7.081,0.802l1.87-6.414
	c1.737-0.133,3.341-0.267,4.677-0.668c1.336-0.4,2.672-0.802,3.741-1.47c-0.134-0.668-0.268-1.336-0.268-2.004
	s-0.134-1.47-0.134-2.271c0-2.672,0.535-5.478,1.737-8.551s2.672-6.146,4.811-9.22c3.206-4.543,6.681-8.017,10.421-10.422
	c3.741-2.404,7.75-3.607,11.892-3.607c2.005,0,3.875,0.268,5.345,0.936c1.604,0.668,3.073,1.604,4.543,3.073
	c0.4-2.138,0.936-3.474,1.604-4.009c0.668-0.534,2.271-0.935,4.81-0.935c2.138,0,3.607,0.267,4.543,0.668
	c0.802,0.4,1.202,1.068,1.202,2.004c0,0.4-0.134,0.936-0.267,1.47c-0.134,0.534-0.401,1.47-0.936,2.672l-13.896,33.671
	c0.936-0.401,2.672-0.668,4.81-0.802c2.271-0.134,3.875-0.401,4.944-0.535l-1.737,6.414l-0.668,0.134
	c-4.677,0.4-7.884,1.068-9.754,1.736c-3.474,8.284-6.413,14.029-9.086,17.236c-2.672,3.206-5.611,4.81-8.685,4.81
	c-2.004,0-3.607-0.534-4.676-1.47c-1.069-1.068-1.604-2.405-1.604-4.275c0-2.672,1.068-5.211,3.073-7.482
	c2.138-2.271,5.344-4.543,9.753-6.681c1.604-3.206,3.073-6.547,4.543-9.887C578.806,412.209,580.275,408.602,581.611,404.727z"/>
<path fill="#424242" d="M612.877,417.152c-3.073,1.47-6.146,2.539-9.22,3.34c-3.072,0.802-6.146,1.203-9.353,1.337l1.871-6.414
	c2.138-0.133,4.142-0.4,6.012-0.935c1.871-0.401,3.607-1.069,5.345-1.737c-1.202-1.604-2.138-3.34-2.672-5.345
	c-0.534-2.004-0.802-4.409-0.802-7.081c0-6.28,2.138-11.758,6.413-16.435c4.275-4.676,9.353-7.081,15.231-7.081
	c3.341,0,5.879,0.936,7.75,2.939c1.87,2.004,2.806,4.677,2.806,8.017c0,3.741-1.336,7.883-4.142,12.292
	c-2.673,4.543-6.414,8.418-10.956,11.892c1.336,1.202,2.806,2.138,4.275,2.672c1.604,0.535,3.474,0.802,5.745,0.802h0.668
	l-1.87,6.414h-1.337c-3.474,0-6.68-0.401-9.353-1.203C617.152,419.958,614.881,418.756,612.877,417.152z M617.82,407.132
	c3.341-2.138,6.013-5.077,8.284-8.686c2.271-3.607,3.34-6.813,3.34-9.486c0-1.336-0.4-2.404-1.068-3.072
	c-0.668-0.669-1.604-1.069-2.939-1.069c-2.673,0-4.944,1.604-6.948,4.677c-2.004,3.072-3.073,6.681-3.073,10.688
	c0,1.604,0.134,2.939,0.535,4.009C616.484,405.261,617.019,406.196,617.82,407.132z"/>
<path fill="none" stroke="#424242" stroke-width="0.9773" d="M612.877,417.152c-3.073,1.47-6.146,2.539-9.22,3.34
	c-3.072,0.802-6.146,1.203-9.353,1.337l1.871-6.414c2.138-0.133,4.142-0.4,6.012-0.935c1.871-0.401,3.607-1.069,5.345-1.737
	c-1.202-1.604-2.138-3.34-2.672-5.345c-0.534-2.004-0.802-4.409-0.802-7.081c0-6.28,2.138-11.758,6.413-16.435
	c4.275-4.676,9.353-7.081,15.231-7.081c3.341,0,5.879,0.936,7.75,2.939c1.87,2.004,2.806,4.677,2.806,8.017
	c0,3.741-1.336,7.883-4.142,12.292c-2.673,4.543-6.414,8.418-10.956,11.892c1.336,1.202,2.806,2.138,4.275,2.672
	c1.604,0.535,3.474,0.802,5.745,0.802h0.668l-1.87,6.414h-1.337c-3.474,0-6.68-0.401-9.353-1.203
	C617.152,419.958,614.881,418.756,612.877,417.152z M617.82,407.132c3.341-2.138,6.013-5.077,8.284-8.686
	c2.271-3.607,3.34-6.813,3.34-9.486c0-1.336-0.4-2.404-1.068-3.072c-0.668-0.669-1.604-1.069-2.939-1.069
	c-2.673,0-4.944,1.604-6.948,4.677c-2.004,3.072-3.073,6.681-3.073,10.688c0,1.604,0.134,2.939,0.535,4.009
	C616.484,405.261,617.019,406.196,617.82,407.132z"/>
<path fill="#424242" d="M630.647,421.829l1.736-6.414c1.604,0,3.341-0.534,5.211-1.47c1.871-0.935,4.009-2.538,6.28-4.542
	c1.068-7.216,2.538-14.564,4.409-22.18c1.87-7.616,4.008-15.232,6.547-22.581c2.138-6.146,4.008-10.421,5.879-12.826
	c1.87-2.405,3.874-3.474,6.279-3.474c1.604,0,2.939,0.668,3.875,1.87c1.069,1.202,1.604,2.939,1.604,4.81
	c0,2.405-0.936,5.612-2.806,9.354c-1.871,3.741-4.409,7.615-7.482,11.624c-2.405,7.749-4.409,14.965-5.879,21.512
	s-2.138,10.822-2.138,13.094c0,1.737,0.4,2.939,1.336,3.741c0.802,0.802,2.271,1.068,4.275,1.068l-1.87,6.414h-1.069
	c-3.474,0-6.279-0.535-8.284-1.47c-2.004-1.069-3.206-2.539-3.74-4.677c-2.139,1.87-4.276,3.474-6.681,4.409
	C635.591,421.161,633.186,421.829,630.647,421.829z"/>
<path fill="none" stroke="#424242" stroke-width="0.9773" d="M630.647,421.829l1.736-6.414c1.604,0,3.341-0.534,5.211-1.47
	c1.871-0.935,4.009-2.538,6.28-4.542c1.068-7.216,2.538-14.564,4.409-22.18c1.87-7.616,4.008-15.232,6.547-22.581
	c2.138-6.146,4.008-10.421,5.879-12.826c1.87-2.405,3.874-3.474,6.279-3.474c1.604,0,2.939,0.668,3.875,1.87
	c1.069,1.202,1.604,2.939,1.604,4.81c0,2.405-0.936,5.612-2.806,9.354c-1.871,3.741-4.409,7.615-7.482,11.624
	c-2.405,7.749-4.409,14.965-5.879,21.512s-2.138,10.822-2.138,13.094c0,1.737,0.4,2.939,1.336,3.741
	c0.802,0.802,2.271,1.068,4.275,1.068l-1.87,6.414h-1.069c-3.474,0-6.279-0.535-8.284-1.47c-2.004-1.069-3.206-2.539-3.74-4.677
	c-2.139,1.87-4.276,3.474-6.681,4.409C635.591,421.161,633.186,421.829,630.647,421.829z"/>
</svg>
